<svg version="1.1" xmlns="http://www.w3.org/2000/svg" x="0px" y="0px" viewBox="0 0 366 60"><text transform="matrix(0.9921 0 0 1 225.9766 36.8633)" class="st0 st1 st2">BUILT FOR BEYOND</text> <path d="M4.2,12.4h13.4v6.2h-5.3v5.9h5v5.9h-5v6.8h5.9v6.2H4.2V12.4z M36.1,18l-3.6,25.3H22.4L18.5,18h6.9l2.2,18.5
								c0.2-1.4,0.5-4.7,0.9-9.9c0.2-2.9,0.5-5.8,0.8-8.5C29.2,18,36.1,18,36.1,18z M54.6,31h-10v5.5c0,1.1,0.1,1.9,0.2,2.2s0.5,0.5,1,0.5
								c0.6,0,1-0.2,1.2-0.7c0.2-0.4,0.3-1.3,0.3-2.5v-3.3h7.3v1.9c0,1.6-0.1,2.8-0.3,3.6s-0.7,1.7-1.4,2.7c-0.7,1-1.6,1.7-2.8,2.1
								c-1.1,0.5-2.5,0.7-4.2,0.7c-1.6,0-3.1-0.2-4.3-0.7c-1.2-0.5-2.2-1.1-2.9-1.9c-0.7-0.8-1.2-1.7-1.4-2.7c-0.3-1-0.4-2.4-0.4-4.3v-7.4
								c0-2.2,0.3-4,0.9-5.2c0.6-1.3,1.6-2.3,2.9-2.9c1.4-0.7,2.9-1,4.7-1c2.2,0,3.9,0.4,5.3,1.2s2.4,1.9,3,3.3c0.6,1.4,0.8,3.2,0.8,5.7V31
								z M46.9,26.9v-1.9c0-1.3-0.1-2.1-0.2-2.5c-0.1-0.4-0.4-0.6-0.9-0.6c-0.5,0-0.9,0.2-1,0.5s-0.2,1.2-0.2,2.6v1.9L46.9,26.9L46.9,26.9z
								 M64.8,18l-0.3,3.3c1.1-2.4,2.7-3.6,4.9-3.8v8.9c-1.4,0-2.4,0.2-3.1,0.6c-0.7,0.4-1.1,0.9-1.2,1.6s-0.2,2.2-0.2,4.7v10h-7.7V18H64.8
								z M88.6,18v19.5c0,2.6-0.1,4.3-0.2,5.1c-0.1,0.8-0.6,1.6-1.3,2.4c-0.7,0.9-1.8,1.5-3.1,2c-1.3,0.5-3,0.7-5,0.7
								c-2.4,0-4.4-0.4-5.9-1.2c-1.5-0.8-2.2-2.5-2.3-4.9h7.5c0,1.1,0.4,1.7,1.2,1.7c0.6,0,1-0.2,1.2-0.5c0.2-0.3,0.3-1.1,0.3-2.2v-1.9
								c-0.7,0.6-1.4,1-2.1,1.4c-0.7,0.3-1.5,0.5-2.3,0.5c-1.4,0-2.5-0.3-3.4-0.8s-1.5-1.3-1.8-2.2s-0.5-2.2-0.5-3.9v-9.2
								c0-2.4,0.4-4.1,1.3-5.2c0.9-1,2.2-1.6,3.9-1.6c1,0,1.8,0.2,2.6,0.6c0.8,0.4,1.5,1,2.1,1.8l0.6-1.9L88.6,18L88.6,18z M80.9,24.7
								c0-1.2-0.1-1.9-0.2-2.2c-0.1-0.3-0.4-0.5-0.9-0.5c-0.4,0-0.8,0.2-0.9,0.5s-0.3,1.1-0.3,2.1v8.5c0,1.1,0.1,1.9,0.2,2.2
								s0.4,0.5,0.9,0.5c0.5,0,0.8-0.2,1-0.6s0.2-1.3,0.2-2.8V24.7z M99.2,12.4v30.8h-7.9V12.4H99.2z M108.9,27.8h-7.2V26
								c0-2,0.2-3.5,0.7-4.5c0.4-1.1,1.4-2,2.7-2.8c1.4-0.8,3.1-1.2,5.3-1.2c2.6,0,4.6,0.5,5.9,1.4s2.1,2,2.4,3.4s0.4,4.1,0.4,8.3v12.7
								h-7.5V41c-0.5,0.9-1.1,1.6-1.8,2c-0.7,0.5-1.6,0.7-2.7,0.7c-1.3,0-2.6-0.4-3.7-1.1c-1.1-0.8-1.7-2.4-1.7-5v-2.1
								c0-1.9,0.3-3.2,0.9-3.9c0.6-0.7,2.1-1.5,4.4-2.4c2.5-1,3.9-1.7,4.1-2s0.3-1,0.3-2.1c0-1.3-0.1-2.2-0.3-2.6c-0.2-0.4-0.5-0.6-1-0.6
								c-0.5,0-0.8,0.2-1,0.5c-0.1,0.3-0.2,1.2-0.2,2.6L108.9,27.8L108.9,27.8z M111.3,31.2c-1.2,0.9-1.9,1.7-2.1,2.3
								c-0.2,0.6-0.3,1.5-0.3,2.6c0,1.3,0.1,2.2,0.3,2.5c0.2,0.4,0.5,0.6,1,0.6c0.5,0,0.8-0.2,0.9-0.5c0.2-0.3,0.2-1.1,0.2-2.3V31.2z
								 M139.2,12.4v30.8h-7.7v-1.8c-0.7,0.8-1.5,1.3-2.3,1.7c-0.8,0.4-1.7,0.6-2.6,0.6c-1.2,0-2.2-0.3-3.1-0.9c-0.9-0.6-1.4-1.4-1.7-2.2
								c-0.2-0.8-0.4-2.2-0.4-4V24.7c0-1.9,0.1-3.3,0.4-4.1s0.8-1.5,1.7-2.1c0.9-0.6,1.9-0.9,3.2-0.9c0.9,0,1.8,0.2,2.6,0.5
								s1.5,0.9,2.2,1.5v-7.2H139.2z M131.5,24.3c0-0.9-0.1-1.5-0.2-1.9c-0.2-0.3-0.5-0.5-0.9-0.5c-0.5,0-0.8,0.1-0.9,0.4
								c-0.2,0.3-0.2,0.9-0.2,1.9v12.4c0,1,0.1,1.7,0.2,2c0.1,0.3,0.4,0.5,0.9,0.5c0.5,0,0.8-0.2,1-0.5c0.2-0.4,0.2-1.2,0.2-2.7L131.5,24.3
								L131.5,24.3z M159.3,31h-10v5.5c0,1.1,0.1,1.9,0.2,2.2c0.2,0.3,0.5,0.5,0.9,0.5c0.6,0,1-0.2,1.2-0.7s0.3-1.3,0.3-2.5v-3.3h7.3v1.9
								c0,1.6-0.1,2.8-0.3,3.6s-0.7,1.7-1.4,2.7s-1.6,1.7-2.8,2.1c-1.1,0.5-2.5,0.7-4.2,0.7c-1.6,0-3.1-0.2-4.3-0.7
								c-1.2-0.5-2.2-1.1-2.9-1.9c-0.7-0.8-1.2-1.7-1.4-2.7c-0.3-1-0.4-2.4-0.4-4.3v-7.4c0-2.2,0.3-4,0.9-5.2c0.6-1.3,1.6-2.3,2.9-2.9
								c1.4-0.7,2.9-1,4.7-1c2.2,0,3.9,0.4,5.3,1.2s2.4,1.9,2.9,3.3s0.9,3.2,0.9,5.7L159.3,31L159.3,31z M151.6,26.9v-1.9
								c0-1.3-0.1-2.1-0.2-2.5c-0.1-0.4-0.4-0.6-0.9-0.6c-0.5,0-0.9,0.2-1,0.5s-0.2,1.2-0.2,2.6v1.9L151.6,26.9L151.6,26.9z M177.6,26h-6.8
								v-1.4c0-1.2-0.1-1.9-0.2-2.2c-0.1-0.3-0.5-0.5-1-0.5c-0.4,0-0.8,0.1-1,0.4c-0.2,0.3-0.3,0.7-0.3,1.3c0,0.8,0.1,1.3,0.2,1.7
								c0.1,0.4,0.4,0.8,1,1.2c0.5,0.4,1.6,1.1,3.3,1.9c2.2,1.1,3.7,2.1,4.4,3.1s1.1,2.4,1.1,4.2c0,2.1-0.3,3.6-0.8,4.7s-1.4,1.8-2.7,2.4
								c-1.2,0.6-2.8,0.8-4.5,0.8c-2,0-3.6-0.3-5-0.9c-1.4-0.6-2.4-1.4-2.9-2.5c-0.5-1-0.8-2.6-0.8-4.7v-1.2h6.8V36c0,1.4,0.1,2.2,0.3,2.7
								s0.5,0.6,1,0.6c0.6,0,0.9-0.1,1.1-0.4c0.2-0.3,0.3-0.8,0.3-1.7c0-1.2-0.1-2-0.4-2.3c-0.3-0.3-1.8-1.2-4.5-2.7
								c-2.3-1.3-3.6-2.4-4.1-3.5c-0.5-1-0.7-2.3-0.7-3.7c0-2,0.3-3.5,0.8-4.5s1.4-1.7,2.7-2.2c1.3-0.5,2.8-0.8,4.4-0.8
								c1.7,0,3.1,0.2,4.3,0.6c1.2,0.4,2.1,1,2.7,1.7c0.6,0.7,1,1.4,1.1,1.9c0.1,0.6,0.2,1.5,0.2,2.8L177.6,26L177.6,26z M183,14.6
								c1.2,0,2.2,0.4,3,1.2c0.8,0.8,1.2,1.8,1.2,2.9c0,1.1-0.4,2.1-1.2,2.9s-1.8,1.2-2.9,1.2c-1.1,0-2.1-0.4-2.9-1.2s-1.2-1.8-1.2-2.9
								c0-0.8,0.2-1.5,0.6-2.2s0.9-1.1,1.6-1.4C181.9,14.7,182.4,14.6,183,14.6z M183.2,15.3c-1,0-1.8,0.3-2.4,1s-0.9,1.4-0.9,2.3
								c0,0.9,0.3,1.7,1,2.3s1.4,1,2.3,1s1.7-0.3,2.3-1s1-1.4,1-2.3c0-0.6-0.2-1.2-0.5-1.7c-0.3-0.5-0.7-0.9-1.2-1.2
								C184.1,15.5,183.6,15.3,183.2,15.3z M181.3,20.8v-4.3h2c0.5,0,0.9,0.1,1.1,0.4c0.2,0.2,0.4,0.5,0.4,0.9c0,0.3-0.1,0.6-0.3,0.8
								c-0.2,0.2-0.5,0.3-0.9,0.4c0.2,0.1,0.3,0.2,0.4,0.3c0.1,0.1,0.3,0.4,0.5,0.7l0.5,0.9H184l-0.4-0.7c-0.2-0.4-0.4-0.7-0.6-0.9
								c-0.2-0.1-0.4-0.2-0.6-0.2h-0.2v1.8L181.3,20.8L181.3,20.8z M182.2,18.3h0.7c0.4,0,0.6,0,0.8-0.1s0.2-0.2,0.2-0.5
								c0-0.2-0.1-0.3-0.2-0.4s-0.4-0.1-0.7-0.1h-0.8L182.2,18.3L182.2,18.3z" class="st0"></path> <g><line x1="209.5" y1="17.7" x2="204" y2="53.8" class="st3"></line> <line x1="208" y1="6.2" x2="202.5" y2="42.3" class="st3"></line></g></svg>